<svg xmlns="http://www.w3.org/2000/svg" xml:space="preserve" width="365.24" height="302.867"><path d="m2178.61 1497.78-56.97 28.6.07-29.21h-37.22l56.56-29.22v29.83zm29.87 48.38v-98.46h-152.42v98.46zm45.42 2.29c0 4.54-3.72 8.26-8.26 8.26h-194.72c-4.54 0-8.26-3.72-8.26-8.26v-102.56c0-4.55 3.72-8.26 8.26-8.26h194.72c4.54 0 8.26 3.71 8.26 8.26zm9.58-1.13v-101.07c0-10.45-8.56-19-19.01-19h-192.41c-10.45 0-18.99 8.55-18.99 19v101.07c0 10.45 8.54 19 18.99 19h192.41c10.45 0 19.01-8.55 19.01-19zm27.31-76.12h-18.51v51.46h18.51v-51.46" style="fill:#b91893;fill-opacity:1;fill-rule:nonzero;stroke:none" transform="matrix(.13333 0 0 -.13333 0 302.867)"/><path d="M394.602 1475.05c13.539 0 24.515-10.97 24.515-24.51 0-13.54-10.976-24.52-24.515-24.52s-24.512 10.98-24.512 24.52 10.973 24.51 24.512 24.51" style="fill:#d16cbd;fill-opacity:1;fill-rule:nonzero;stroke:none" transform="matrix(.13333 0 0 -.13333 0 302.867)"/><path d="M2124.38 1292.93s12.49 5.05 22.99 14.99c10.51 9.92 16.67 22.81 18.82 32.42 2.15 9.61 4.16 21.05 4.16 21.05s-20.14 1.91-34.04 4.35c-12.15 2.15-30.85 7.08-30.85 7.08s-2.02-11.43-3.28-21.19c-1.28-9.77.11-23.99 6.58-36.91 6.48-12.92 15.62-21.79 15.62-21.79zm-25.61 68.77s-3.37 15.43 3.85 23.15c7.22 7.73 16.44 11.77 24.35 12.44 7.92.66 18.18 7.05 18.18 7.05s7.29-9.47 14.46-12.81c7.17-3.33 14.34-10.26 18.31-19.96 3.97-9.69-4.76-22.99-4.76-22.99s15.11-5.06 18.16-15.08c3.04-10.04 1.87-19.98-1.57-27.14-3.44-7.16-3.11-19.15-3.11-19.15s-11.94-1.64-18.47-6.19c-6.55-4.54-16.22-7.32-26.65-5.98-10.44 1.35-17.77 15.18-17.77 15.18s-11.76-10.74-22.02-8.43c-10.26 2.3-18.31 8.2-22.78 14.69-4.48 6.49-15.07 12.1-15.07 12.1s4.65 11.11 4.01 19c-.63 7.87 1.87 17.58 8.34 25.93 6.48 8.35 22.54 8.19 22.54 8.19zm-41.64-14.71c7.25 41.09 46.45 68.53 87.54 61.29 41.1-7.24 68.54-46.44 61.3-87.54-7.25-41.1-46.44-68.54-87.54-61.3-41.1 7.25-68.55 46.45-61.3 87.55" style="fill:#c25ab4;fill-opacity:1;fill-rule:evenodd;stroke:none" transform="matrix(.13333 0 0 -.13333 0 302.867)"/><path d="m111.648 778.891 81.79 134.339h-26.747c-2.492 0-4.664-.941-6.222-2.492-1.551-1.547-2.797-3.097-4.035-4.668l-50.7-86.761c-2.171-3.418-3.726-6.84-5.285-9.95-1.242-3.109-2.488-6.539-3.734-9.64-.926 3.101-2.172 6.222-3.73 9.64-1.247 3.11-3.106 6.532-5.282 10.262L36.695 906.07c-.933 1.871-2.484 3.731-4.047 4.989-1.546 1.23-3.414 2.171-6.214 2.171H0l81.793-134.339V690.25h29.855v88.641M370.234 801.578c0-13.68-1.863-25.816-5.593-36.687-3.735-10.891-9.02-20.211-15.864-27.68-6.843-7.473-15.242-13.07-24.879-17.109-9.64-4.043-20.523-6.211-32.656-6.211-11.816 0-22.699 2.168-32.652 6.211-9.645 4.039-18.039 9.636-24.875 17.109-6.848 7.469-12.129 16.789-15.867 27.68-3.735 10.871-5.594 23.007-5.594 36.687 0 13.684 1.859 26.121 5.594 37.012 3.738 10.879 9.019 19.91 15.867 27.371 6.836 7.461 15.23 13.379 25.183 17.418 9.645 4.043 20.528 6.223 32.344 6.223 12.133 0 23.016-2.18 32.656-6.223 9.637-4.039 18.036-9.957 24.879-17.418 6.844-7.461 12.129-16.789 15.864-27.68 3.73-10.883 5.593-23.019 5.593-36.703zm31.102 0c0 16.793-2.801 32.031-8.082 46.031-5.289 14-12.754 25.813-22.399 36.071-9.636 9.961-21.14 18.039-34.832 23.629-13.371 5.3-28.3 8.402-44.781 8.402-16.48 0-31.406-3.102-44.781-8.699-13.371-5.59-25.195-13.371-34.832-23.332-9.641-10.258-17.106-22.071-22.395-36.071-5.281-14-7.769-29.238-7.769-46.031 0-16.797 2.793-32.027 8.086-46.019 5.285-14.008 12.75-25.821 22.39-36.09 9.645-9.949 21.149-17.707 34.52-23.321 13.375-5.589 28.301-8.386 44.781-8.386 16.481 0 31.41 2.797 44.781 8.386 13.692 5.614 25.196 13.372 34.832 23.641 9.645 9.949 17.11 21.762 22.399 35.77 5.281 13.992 8.082 29.222 8.082 46.019M644.871 791.27v121.96h-30.16V690.25h30.16v63.238l29.594 32.91 78.324-89.929c.934-.93 1.559-1.559 2.484-2.5.934-.918 1.864-1.539 2.801-2.16.938-.329 2.184-.938 3.422-.938 1.246-.621 3.109-.621 4.977-.621h26.121l-98.637 118.68 92.723 104.3h-25.809c-3.105 0-5.906-.621-8.082-1.859-2.176-.941-4.355-2.812-6.531-5.609L644.871 791.27M456.328 784.441v104.84h41.121c17.098 0 26.942-6.601 35.653-13.441 8.558-6.731 17.355-20.82 17.355-38.102 0-14.687-6.394-29.179-17.129-39.5-5.984-5.758-19.933-14.109-36.105-14.109zm0-22.082h22.703c4.043 0 7.153-.621 9.328-1.55 2.18-1.25 3.774-3.34 5.911-5.598 12.308-12.961 49.996-50.652 57.847-58.742 3.246-3.348 6.528-6.219 12.129-6.219h26.738l-65.304 67.77c-2.797 4.039-6.219 7.152-9.957 9.32 12.078 2.34 30.097 9.769 38.953 18.941 6.426 6.649 14.054 15.949 16.543 22.789 6.004 12 7.816 30.879 6.004 41.102-3.407 19.129-13.024 36.289-29.633 48.918-15.332 11.648-32.414 14.14-51.156 14.14H426.16V690.25h30.168v72.109M1166.87 913.23h-137.46V690.25h30.47v91.781h91.44v24.578h-91.74v82.051h107.29v24.57M1330.4 913.23h-137.46V690.25h137.46v24.559h-107.3v67.711h86.77v23.628h-86.77v82.512h107.3v24.57M1475.2 878.398l7.47 14.301c-7.78 7.473-16.8 13.063-27.06 17.102-10.27 3.738-21.46 5.91-34.21 5.91-10.89 0-20.83-1.852-29.23-5.281-8.72-3.418-15.87-8.09-21.77-13.68-5.6-5.602-9.95-12.129-13.06-19.59-3.11-7.469-4.67-14.93-4.67-23.019 0-9.641 1.56-18.039 4.67-24.563 3.11-6.848 7.14-12.437 12.13-16.797 4.97-4.351 10.57-8.082 16.78-10.89 6.53-2.789 13.07-5.289 19.6-7.461 6.84-2.168 13.38-4.039 19.6-6.219 6.52-1.859 12.12-4.352 17.09-7.461 4.98-2.809 9.02-6.219 12.14-10.57 3.1-4.36 4.66-9.961 4.66-16.801 0-5.91-1.24-11.508-3.41-16.5-1.88-4.969-4.99-9.309-8.72-12.738-4.04-3.719-8.71-6.52-14.31-8.391-5.59-1.859-11.81-3.102-19.28-3.102-8.38 0-15.85 1.243-21.76 3.723-5.91 2.168-10.89 4.981-15.24 7.77-4.05 2.8-7.78 5.289-10.58 7.468-2.8 2.481-4.97 3.731-7.47 3.731-1.23 0-2.48-.621-3.72-1.25-1.25-.93-2.49-1.852-3.11-3.102l-8.71-14.308c8.39-8.7 18.66-15.86 30.48-21.141 11.81-5.289 24.88-7.777 39.49-7.777 11.83 0 22.09 1.867 31.42 5.597 9.32 3.422 17.1 8.403 23.63 14.922 6.22 6.219 11.19 13.688 14.62 22.078 3.1 8.711 4.97 17.743 4.97 27.692 0 9.008-1.55 16.777-4.67 23.32-3.11 6.219-7.15 11.508-12.12 15.859-4.98 4.348-10.89 8.079-17.11 10.879-6.53 2.813-13.05 5.289-19.59 7.782a707.477 707.477 0 0 0-19.59 6.531c-6.53 2.168-12.13 4.668-17.12 7.457-4.97 2.801-9 6.531-12.12 10.582-3.1 4.039-4.66 9.008-4.66 15.551 0 4.66.93 9.328 2.79 13.367 1.57 4.351 4.36 8.082 7.79 11.199 3.42 3.102 7.77 5.281 13.05 7.141 4.99 1.883 10.89 2.812 17.73 2.812 7.15 0 13.37-.929 18.34-2.812 4.98-1.539 9.34-3.41 12.76-5.59 3.74-2.18 6.54-4.039 9.02-5.899 2.19-1.878 4.36-2.808 6.22-2.808 1.55 0 2.79.617 4.04 1.25.94.93 1.87 1.859 2.8 3.726M1665.09 913.23h-174.47v-25.511h72.45V690.25h30.17v197.469h71.85v25.511M1720.07 690.25v222.98h-30.17V690.25h30.17M1741.42 913.23l90.81-222.98h27.36l90.81 222.98h-24.57c-2.48 0-4.67-.941-6.52-2.492-1.56-1.547-2.79-3.097-3.74-4.976l-62.5-157.051c-1.56-3.41-2.79-7.461-3.74-11.5-1.23-4.051-2.18-8.402-3.11-13.07-1.24 4.668-2.18 9.019-3.42 13.07-1.25 4.039-2.49 8.09-4.04 11.5l-63.13 157.359c-.62 1.871-1.87 3.731-3.73 4.989-1.56 1.23-3.73 2.171-6.54 2.171h-23.94M1977.67 762.898l39.19 100.571c.92 2.801 1.86 5.91 3.1 9.332.94 3.73 2.18 7.461 3.43 11.82 2.18-8.391 4.35-15.242 6.53-21.152l39.32-100.571zm150.21-72.648-89.26 222.98h-30.78l-88.95-222.98h23.33c2.48 0 4.66.621 6.53 2.18 1.87 1.539 3.1 3.109 3.73 4.968l17.05 44.082h107.83l16.94-44.082c.61-2.179 1.86-3.738 3.72-5.289 1.56-1.238 3.74-1.859 6.54-1.859h23.32M2173.5 715.75v197.48h-30.18V690.25h126.58v25.5h-96.4M2522.79 801.578c0-13.68-1.86-25.816-5.59-36.687-3.72-10.891-9.01-20.211-15.86-27.68-6.85-7.473-15.24-13.07-24.87-17.109-9.64-4.043-20.53-6.211-32.66-6.211-11.82 0-22.7 2.168-32.66 6.211-9.63 4.039-18.03 9.636-24.88 17.109-6.84 7.469-12.12 16.789-15.86 27.68-3.73 10.871-5.59 23.007-5.59 36.687 0 13.684 1.86 26.121 5.59 37.012 3.74 10.879 9.02 19.91 15.86 27.371 6.85 7.461 15.25 13.379 25.19 17.418 9.65 4.043 20.53 6.223 32.35 6.223 12.13 0 23.02-2.18 32.66-6.223 9.63-4.039 18.02-9.957 24.87-17.418 6.85-7.461 12.14-16.789 15.86-27.68 3.73-10.883 5.59-23.019 5.59-36.703zm31.12 0c0 16.793-2.8 32.031-8.1 46.031-5.28 14-12.74 25.813-22.39 36.071-9.64 9.961-21.14 18.039-34.82 23.629-13.38 5.3-28.32 8.402-44.79 8.402-16.48 0-31.41-3.102-44.78-8.699-13.38-5.59-25.2-13.371-34.84-23.332-9.64-10.258-17.1-22.071-22.39-36.071-5.28-14-7.77-29.238-7.77-46.031 0-16.797 2.79-32.027 8.09-46.019 5.27-14.008 12.74-25.821 22.38-36.09 9.65-9.949 21.15-17.707 34.53-23.321 13.37-5.589 28.3-8.386 44.78-8.386 16.47 0 31.41 2.797 44.79 8.386 13.68 5.614 25.18 13.372 34.82 23.641 9.65 9.949 17.11 21.762 22.39 35.77 5.3 13.992 8.1 29.222 8.1 46.019M2719.87 913.23h-137.45V690.25h30.46v91.781h91.45v24.578h-91.75v82.051h107.29v24.57" style="fill:#231f20;fill-opacity:1;fill-rule:evenodd;stroke:none" transform="matrix(.13333 0 0 -.13333 0 302.867)"/><path d="M2343.24 1777.17c1.81-2.31-.79-2.35-1.05-4.03-.24-1.48.52-1.58.52-1.58s58.02 23.26 62.02 26.53c3.99 3.28 5.4 4.49 6.46 4.52 2.29.07 3.23-1.81 2.62-3.33-.61-1.51-1.94-2.83-4.13-3.54-2.19-.72-3.3.89-5.29.24-2-.65-60.63-24.96-61.17-25.36-.52-.39-.54-1.92.31-2.53.86-.61 5.75-.56 2.55-4.9-2.29-3.11 1.75-5.02-3.75-6.72-2.84-.88-4.08-3.39-6.99-3.59-1.05-.08-.55-3.04-.55-3.04s28.16 3.6 62.52-22.39c43.51-32.9 64.53-47.49 77.42-91.93 12.91-44.45-11.44-29.61-12.97-30.32-1.52-.72-3.65-10.29-15.61-9.78-5.52.24-19.38 2.73-21.71 7.92-2.34 5.18-3.68-8.85-16.82-1.07-15.33 9.07-20.23-20.38-42.52-11.4-11.26 4.54-23.45 7.79-33.66 4.7-10.22-3.1-15.06-10.31-19.6-8.79-5.2 1.74-16.75-3.69-20.2-.84-3.77 3.12-11.1 4.38-17.58 3.97-5.81-.36-7.59.39-11.7 2.14-4.09 1.76-6.7-.99-5.53 2.82.66 2.17 6.85 13.63 3.53 13.29-.1-.01-2.25.49-4.57-1.96-4.45-4.7-6.96-5.25-10.96-6.21-12.45-2.94-18.84 13.26-22.54 13.81-3.71.56-24.56 8.91-28.57 20.87-1.2 3.58 5.28 16.24 6.81 16.97 1.53.71-7.22.68-10.07-.85-.73-.41 33.81 31.81 34.98 34.34-2.74-.53-42.35-26.25-41.8-25.63 2.19 2.39 4.33 10.88 3.28 9.56-1.07-1.31-14.94-4.52-18.11-2.51-10.64 6.8-13.7 29.04-13.34 32.78.35 3.72-13.81 13.84-7.95 25.2 1.9 3.65 3.06 5.97 8.68 9.15 2.94 1.65 2.96 3.86 3 3.95 1.13 3.15-11.47-.09-13.75-.21-3.96-.22-.68 1.67-1.39 6.05-.71 4.4-1 6.32.76 11.88 1.95 6.18 2.52 13.6.4 18.01-1.94 4.04 6.14 13.93 5.69 19.4-.38 4.76 7.78 7.72 13.27 16.88 5.48 9.16 5.27 21.77 3.59 33.8-3.32 23.81 26.43 21.42 21.34 38.5-4.36 14.63 9.57 12.54 5.1 16.06-4.45 3.53-3.52 17.57-2.41 22.98 2.38 11.74 12.19 11.48 13.25 12.79 1.06 1.3-7.45 28.52 32.56 5.25 40.01-23.27 49.08-47.19 70.48-97.36 16.89-39.63 6.6-66.08 6.6-66.08s2.74-1.22 3.08-.2c.89 2.78 3.64 3.37 5.16 5.9 2.99 4.93 3.88.55 7.44 2.02 4.98 2.05 3.75-2.69 4.13-3.67.38-.97 1.88-1.33 2.4-.9.5.42 38.28 51.43 39.4 53.21 1.09 1.77-.18 3.24 1.04 5.2 1.22 1.95 2.81 2.92 4.44 3.14 1.61.23 3.2-1.14 2.59-3.35-.28-1-1.8-2.08-5.94-5.17-4.15-3.08-40.76-53.76-40.76-53.76s-.09-.77 1.41-.89c1.87-.14 2.28 2.44 4.16.06M2215.93 1260.4c70.27-17.56 117.96-78.63 117.96-151.42 0-58.55-35.14-100.38-82.82-100.38-41 0-73.63 31.79-73.63 71.95 0 26.76 10.05 45.17 32.63 58.56 16.73 10.03 21.76 15.89 21.76 26.76 0 20.93-23.43 39.31-60.24 47.69l44.34 46.84M2044.62 1260.4c69.43-17.56 117.12-78.63 117.12-151.42 0-58.55-34.31-100.38-82.82-100.38-41 0-73.62 31.79-73.62 71.95 0 26.76 10.87 45.17 32.62 58.56 17.58 10.87 21.75 15.89 21.75 26.76 0 20.93-23.42 39.31-59.39 47.69l44.34 46.84" style="fill:#b91893;fill-opacity:1;fill-rule:evenodd;stroke:none" transform="matrix(.13333 0 0 -.13333 0 302.867)"/><path d="M1618.66 2127.25v-29.4h34.64l.07 30.57 26.44-15.27 17.31 29.99-26.07 15.05 26.07 15.57-17.31 29.99-26.36-15.22-.15 30.52h-34.76l-.11-30.4-26.27 15.1-17.32-29.99 26.23-15.47-26.23-15.15 17.32-29.99 26.5 14.1" style="fill:#b91893;fill-opacity:1;fill-rule:nonzero;stroke:none" transform="matrix(.13333 0 0 -.13333 0 302.867)"/><path d="M1120.17 1842.22c-1.95-12.02 19.61-9.84 28.52-12.77 17.5-2.61 29.44-18.06 27.37-35.47-2.36-16.99-18.01-29.08-35.27-27.21-17.15 2.57-29.08 18.01-27.37 35.46-.71 11.15 7.78 30.94-4.54 31.27-11.62.32-8.41-18.19-11.73-27.39-1.82-16.9-17.87-29.29-34.87-26.92-17.31 2.76-29.24 18.22-27.22 35.26 2.31 16.66 18.36 29.04 34.87 26.93 11.19 1.05 29.2-7.08 31.16 5.08 2.02 12.49-20.8 8.93-30.25 11.74-16.81 2.53-28.88 18.18-27.06 35.07 2.56 17.16 18.41 29.39 35.25 27.22 17.21-2.21 29.29-17.86 27.23-35.26 1.1-10.85-7.02-29.94 5.13-30.81 11.81-.85 8.56 17.98 11.99 27.89 2.11 16.5 18.16 28.89 34.86 26.92 17.4-2.06 29.64-17.91 27.07-35.07-1.86-17.25-17.91-29.63-34.87-26.91-10.74-1.66-28.35 6.78-30.27-5.03" style="fill:#d16cbd;fill-opacity:1;fill-rule:nonzero;stroke:none" transform="matrix(.13333 0 0 -.13333 0 302.867)"/><path d="M1348.29 1397.72h20.29c46.11 0 92.22 10.45 126.05 44.27 30.75 30.74 44.89 75.64 44.89 118.68 0 59.65-35.06 108.85-97.77 108.85-54.73 0-100.23-34.44-100.23-91.63 0-46.73 40.58-86.7 87.31-86.7 9.23 0 17.5.31 25.17 3.6 3.29 1.09 6.57 2.73 9.85 2.73 9.31 0 14.77-6.56 14.77-15.31 0-23.54-27.36-44.89-47.06-52.54-30.29-11.31-59.08-13.93-84.01-8.71l.74-23.24M2439.72 1461.02l28.19 39.96c1.87-7.01 4.61-11.62 10.86-16.17 9.68-7.03 23.57-4.08 30.61 5.58 8.05 11.1 4.22 24.34-5.4 32.64 2.71 1.94 5.21 3.6 7.08 6.15 8.06 11.1 5.53 25.56-5.28 33.42-9.38 6.83-23.35 4.38-30.18-5.01-2.28-3.14-3.21-6.8-4.34-10.76-11.48 5.74-25.29 7.08-33.78-4.57-7.86-10.81-5.08-23.72 5.45-31.37 4.84-3.52 11.12-5.05 17.02-4.12l-29.33-39.13-38.82 27.38c5.88 2.68 11.04 5.01 14.98 10.41 7.66 10.53 5.27 24-5.25 31.66-10.24 7.45-24.83 4.14-32.63-5.41-1.74 3.01-3.6 5.23-6.45 7.3-10.23 7.45-25.06 5.61-32.5-4.62-6.41-8.83-6.21-22.9 3.18-29.73 3.4-2.48 7.94-4.02 12.17-5.37-7.16-10.45-8.55-25.53 2.53-33.59 10.53-7.66 24.53-6.97 32.59 4.13 3.94 5.4 5.62 10.71 5.6 17.25l37.98-28.51-27.16-38.52c-1.91 5.74-4.16 10.41-9.56 14.35-10.25 7.45-24.62 4.42-32.07-5.82-8.08-11.1-3.78-25.52 6.95-32.89-3.7-2.1-6.42-4.04-8.9-7.45-7.24-9.95-4.79-23.92 4.89-30.96 10.52-7.66 24.69-4.92 32.14 5.33 2.49 3.4 3.36 5.81 4.01 9.69 10.29-6.18 25.84-5.74 33.49 4.79 7.87 10.81 4.71 24.4-5.82 32.07-4.83 3.51-11.32 4.75-17.45 5.3l28.59 37.49 40.15-27.91c-5.95-2.19-10.96-5.51-14.68-10.63-7.46-10.24-5.93-23.08 4.88-30.94 11.38-8.29 25.31-4.08 33.46 6.53 1.53-3.29 3.18-5.8 6.3-8.07 9.97-7.24 24.37-5.97 31.82 4.26 7.45 10.25 4.84 25.2-5.4 32.64-2.85 2.08-5.74 2.87-9.13 3.6 6.95 10.16 6.1 25.14-4.42 32.79-10.52 7.65-23.94 6.55-31.81-4.26-3.73-5.12-5.46-11.69-5.43-18.24l-39.13 29.33" style="fill:#b91893;fill-opacity:1;fill-rule:evenodd;stroke:none" transform="matrix(.13333 0 0 -.13333 0 302.867)"/><path d="M1797.55 1907.23c17.34 0 31.41-14.06 31.41-31.39 0-17.35-14.07-31.42-31.41-31.42s-31.41 14.07-31.41 31.42c0 17.33 14.07 31.39 31.41 31.39M1297.31 2186.31c15.53 0 28.13-12.6 28.13-28.12 0-15.53-12.6-28.13-28.13-28.13s-28.12 12.6-28.12 28.13c0 15.52 12.59 28.12 28.12 28.12" style="fill:#c25ab4;fill-opacity:1;fill-rule:evenodd;stroke:none" transform="matrix(.13333 0 0 -.13333 0 302.867)"/><path d="m1640.54 1074.32 38.37-12.47-12.47-38.36c-2.85-8.81-12.32-13.64-21.13-10.77-8.8 2.86-13.63 12.31-10.76 21.13 1.41 4.32 4.66 7.61 8.4 9.58-3.81-1.96-8.38-2.43-12.77-1.01-8.81 2.86-13.63 12.32-10.77 21.13 2.87 8.8 12.32 13.64 21.13 10.77zm13.7-20.01c-3.54 1.15-7.35-.78-8.5-4.33-1.16-3.55.79-7.34 4.33-8.51a6.77 6.77 0 0 1 8.51 4.34c1.15 3.54-.8 7.35-4.34 8.5M1671.31 1022.58l12.47 38.36 38.36-12.46c8.82-2.87 13.63-12.33 10.77-21.13-2.86-8.82-12.32-13.63-21.12-10.78-4.35 1.43-7.64 4.68-9.59 8.42a16.77 16.77 0 0 0 1.01-12.78c-2.87-8.8-12.33-13.64-21.13-10.77-8.82 2.86-13.63 12.32-10.77 21.14zm20.01 13.7c-1.16-3.55.78-7.35 4.33-8.51 3.53-1.14 7.35.78 8.49 4.34 1.16 3.54-.79 7.34-4.32 8.5-3.55 1.15-7.36-.79-8.5-4.33M1723.05 1053.35l-38.36 12.47 12.47 38.36c2.85 8.8 12.31 13.63 21.12 10.76 8.81-2.85 13.63-12.31 10.76-21.12-1.4-4.34-4.66-7.62-8.4-9.58 3.81 1.94 8.39 2.43 12.78.99 8.81-2.87 13.62-12.32 10.76-21.12-2.86-8.81-12.31-13.63-21.13-10.76zm-13.69 19.99c3.53-1.14 7.33.79 8.49 4.34 1.15 3.54-.79 7.35-4.32 8.5-3.56 1.14-7.36-.79-8.51-4.33a6.758 6.758 0 0 1 4.34-8.51M1692.29 1105.09l-12.47-38.36-38.36 12.46c-8.82 2.86-13.64 12.32-10.77 21.12 2.86 8.82 12.32 13.63 21.12 10.76 4.34-1.4 7.62-4.65 9.59-8.4-1.95 3.81-2.43 8.37-1.02 12.79 2.87 8.8 12.34 13.61 21.14 10.76 8.81-2.87 13.63-12.33 10.77-21.13zm-20.01-13.71c1.14 3.55-.79 7.35-4.33 8.5a6.737 6.737 0 0 1-8.5-4.33c-1.16-3.54.8-7.34 4.33-8.5 3.54-1.14 7.34.79 8.5 4.33" style="fill:#b91893;fill-opacity:1;fill-rule:nonzero;stroke:none" transform="matrix(.13333 0 0 -.13333 0 302.867)"/><path d="m1384.03 1778.23.08-37.23-18.69 32.25-.24.56-.25.49-.16.58-.25.73-.32 1.96.08 1.96.49 1.88.82 1.79 1.06 1.55 1.38 1.31 1.63 1.06 1.88.66 2.05.33 1.87-.08 1.88-.42 1.71-.81 1.56-1.14 1.38-1.4.98-1.62.73-1.88.17-.99.16-1.54M1385.5 1778.23l-.08-37.23 18.69 32.25.26.56.23.49.17.58.24.73.25 1.96v1.96l-.49 1.88-.82 1.79-1.06 1.55-1.38 1.31-1.72 1.06-1.88.66-1.96.33-1.95-.08-1.8-.42-1.8-.81-1.55-1.14-1.31-1.4-1.05-1.62-.75-1.88-.15-.99-.09-1.54M1364.68 1771.29l18.7-32.25-32.25 18.62-.48.31-.5.33-.4.41-.57.49-2.21 3.35-.73 3.68.73 3.75 2.21 3.27 1.54 1.3 1.72.9 1.8.57 1.87.17 1.96-.17 1.8-.57 1.79-.98 1.48-1.22.32-.25.33-.48.41-.58.48-.65M1404.77 1771.29l-18.62-32.25 32.25 18.62.49.31.5.33.4.41.57.49 2.21 3.35.73 3.68-.73 3.75-2.21 3.27-1.55 1.3-1.71.9-1.88.57-1.88.17-1.96-.17-1.79-.57-1.72-.98-1.55-1.22-.24-.25-.41-.48-.41-.58-.49-.65M1351.87 1755.53l32.24-18.61h-37.79l-.57.08-.58.16-.81.16-1.88.73-1.63.99-1.39 1.39-1.14 1.55-.82 1.71-.41 1.88-.08 1.95.33 1.97.65 1.88 1.06 1.63 1.31 1.39 1.63 1.06 1.72.81 1.87.42 1.97.08 1.95-.25.33-.16.57-.25.73-.24.74-.33M1417.67 1755.53l-32.25-18.61h37.8l.57.08.57.16.82.16 1.87.73 1.63.99 1.39 1.39 1.15 1.55.81 1.71.41 1.88.08 1.95-.32 1.97-.73 1.88-1.07 1.63-1.3 1.39-1.56 1.06-1.71.81-1.87.42-1.97.08-2.04-.25-.33-.16-.57-.25-.65-.24-.73-.33M1384.03 1694.14l.08 37.22-18.69-32.24-.24-.49-.25-.57-.16-.57-.25-.73-.32-1.97.08-1.96.49-1.87.82-1.72 1.06-1.55 1.38-1.39 1.63-1.06 1.88-.65 2.05-.32 1.87.07 1.88.41 1.71.82 1.56 1.14 1.38 1.39.98 1.63.73 1.88.17.97.16 1.56M1385.5 1694.14l-.08 37.22 18.69-32.24.26-.49.23-.57.17-.57.24-.73.25-1.97v-1.96l-.49-1.87-.82-1.72-1.06-1.55-1.38-1.39-1.72-1.06-1.88-.65-1.96-.32-1.95.07-1.8.41-1.8.82-1.55 1.14-1.31 1.39-1.05 1.63-.75 1.88-.15.97-.09 1.56M1364.68 1701.08l18.7 32.24-32.25-18.61-.48-.33-.5-.32-.4-.41-.57-.49-2.21-3.35-.73-3.66.73-3.77 2.21-3.34 1.54-1.22 1.72-.91 1.8-.57 1.87-.16 1.96.16 1.8.57 1.79.91 1.48 1.22.32.32.33.49.41.58.48.65M1404.77 1701.08l-18.62 32.24 32.25-18.61.49-.33.5-.32.4-.41.57-.49 2.21-3.35.73-3.66-.73-3.77-2.21-3.34-1.55-1.22-1.71-.91-1.88-.57-1.88-.16-1.96.16-1.79.57-1.72.91-1.55 1.22-.24.32-.41.49-.41.58-.49.65M1351.87 1716.83l32.24 18.62h-37.79l-.57-.09-.58-.16-.81-.16-1.88-.74-1.63-.98-1.39-1.39-1.14-1.54-.82-1.72-.41-1.87-.08-1.97.33-1.95.65-1.88 1.06-1.64 1.31-1.38 1.63-1.15 1.72-.81 1.87-.41 1.97-.09 1.95.33.33.09.57.24.73.32.74.33M1417.67 1716.83l-32.25 18.62h37.8l.57-.09.57-.16.82-.16 1.87-.74 1.63-.98 1.39-1.39 1.15-1.54.81-1.72.41-1.87.08-1.97-.32-1.95-.73-1.88-1.07-1.64-1.3-1.38-1.56-1.15-1.71-.81-1.87-.41-1.97-.09-2.04.33-.33.09-.57.24-.65.32-.73.33" style="fill:#c25ab4;fill-opacity:1;fill-rule:nonzero;stroke:none" transform="matrix(.13333 0 0 -.13333 0 302.867)"/><path d="M1666.07 1339.51c-9.71-6.15-19.16-9.22-28.71-.33-6.02 5.61-9.01 13.03-9.29 21.23-11.43-5.87-26.33-9.82-36.94.08-8.12 7.57-6.95 23.01-6.63 33.26l-5.7-3.26c-19.44-20.86-27.74-47.48-44.56-65.5-6.91-7.43-34.32-35.4-44.93-25.52-11.31 10.55 9.02 55.03 14.09 66.84 10.44 23.96 20.21 47.89 35.18 69.62 16.59 24.17 34.48 50.44 54.25 71.65 11.55 12.37 16.93 14.61 32.44 21.3l55.99 21.79c19.62 6.15 22.89 10.37 37.46 23.87 8.6 8.51 13.9 13.48 25.93 11.51 18.56-2.77 38.56-17.46 52-29.98 12.73-11.87 30.94-34.14 35.64-51.08 1.6-6.78-4.36-12.45-7.61-17.36l-16.61-23.49c-9.16-11.94-9.21-10.58-12.82-24.38-5.98-24.83-6.57-37.5-24.36-56.59-14.84-15.9-40.81-35.96-58.16-48.19-12.37-8.3-25.77-16.29-38.48-4.43l-8.18 8.96" style="fill:#b91893;fill-opacity:1;fill-rule:evenodd;stroke:none" transform="matrix(.13333 0 0 -.13333 0 302.867)"/><path d="M656.246 1710.16c8.922 17.12 28.371 25.2 46.281 20.44a40.351 40.351 0 0 0 4.231 13.35c10.332 19.84 34.797 27.54 54.625 17.2 19.836-10.33 27.535-34.78 17.203-54.62a40.43 40.43 0 0 0-7.969-10.61c16.84-11.37 22.828-33.81 13.211-52.24-10.332-19.84-34.781-27.54-54.621-17.21-11.25 5.86-18.602 16.27-20.965 27.81-10.804-4.67-23.547-4.61-34.804 1.26-19.829 10.32-27.528 34.78-17.192 54.62zm-21.176 11.59c10.914 20.95 31.942 33.22 53.981 33.93 16.297 30.46 54.113 42.19 84.824 26.18 30.617-15.96 42.688-53.5 27.258-84.27 12.332-18.53 14.457-43.03 3.445-64.17-16.113-30.92-54.242-42.92-85.164-26.81-10.516 5.48-18.848 13.51-24.621 22.94-11.039-.67-22.395 1.57-32.91 7.05-30.922 16.11-42.926 54.23-26.813 85.15zm9.008-6.73c9.82 18.83 29.238 29.42 49.141 28.88a54.77 54.77 0 0 0 3.203 7.42c13.996 26.85 47.105 37.28 73.957 23.28 26.848-13.99 37.273-47.09 23.281-73.95a55.043 55.043 0 0 0-3.883-6.36c12.602-16.09 15.418-38.7 5.36-58-13.711-26.31-46.16-36.52-72.481-22.81-10.41 5.43-18.293 13.78-23.183 23.54-10.793-1.59-22.16.09-32.578 5.52-26.313 13.7-36.528 46.16-22.817 72.48" style="fill:#d16cbd;fill-opacity:1;fill-rule:evenodd;stroke:none" transform="matrix(.13333 0 0 -.13333 0 302.867)"/><path d="m1271.6 2268.04-28.84-54.64-47.6-10.27 33.62 54.65 42.82 10.26M1313.17 2228.57l-37.13-7.43 29.43 50.31zM1159.22 2194.89l-44.94-9.69 36.93 55.12 41.47 9.37-33.46-54.8M1110.25 2230.67l-32.04-53.17-40.38-9.15 32.24 53.47 40.18 8.85M997.359 2159.98l-10.828 41.75.977 1.94 41.322 8.98-31.471-52.67M996.402 2153.15l30.588-46.47 46.41-6.69-30.59 47.31 41.32-5.82 31.45-47.42 53.31-7.49-35.61 48 40.27-5.53 34.95-48.04 40.78-5.74-35.91 48.07 43.39-6.1 35.91-48.05-21.65-152.91-301.379 42.35 26.761 194.53M2368.24 1329.71l204.87 7.02s70.07-270.96 70.52-279.46c.62-11.94-.72-16.59-5.22-28.52-3.21-8.56-12.76-18.41-12.76-18.41l-229.44-8.78-57.48 260.31 16.5.53 56.27-244.54 208.88 7.92s12.5 11.84 11.63 28.44c-.64 12.22-2.9 16.18-4.74 21.71l-201.54-6.53-57.49 260.31" style="fill:#b91893;fill-opacity:1;fill-rule:nonzero;stroke:none" transform="matrix(.13333 0 0 -.13333 0 302.867)"/><path d="M935.656 2176.91c17.344 0 31.403-14.05 31.403-31.4 0-17.34-14.059-31.4-31.403-31.4-17.343 0-31.406 14.06-31.406 31.4 0 17.35 14.063 31.4 31.406 31.4" style="fill:#b91893;fill-opacity:1;fill-rule:evenodd;stroke:none" transform="matrix(.13333 0 0 -.13333 0 302.867)"/><path d="m1449.82 2014.91 29.71 6.32-3.15 14.85 13.1 2.79 3.17-14.86 34.08 7.24 5.28 26.7 84.78 18.01 15.67-22.23 75.17 15.97 31.57-148.57-257.81-54.78zm82.58-60.09c-7.28 34.31 14.61 68.02 48.91 75.3 34.3 7.3 68.02-14.6 75.3-48.91 7.29-34.29-14.61-68-48.9-75.3-34.3-7.28-68.01 14.62-75.31 48.91zm16.38 3.48c-5.37 25.26 10.75 50.08 36.02 55.45 25.24 5.37 50.07-10.76 55.44-36.01 5.36-25.26-10.76-50.08-36.01-55.44-25.25-5.38-50.08 10.75-55.45 36" style="fill:#d16cbd;fill-opacity:1;fill-rule:evenodd;stroke:none" transform="matrix(.13333 0 0 -.13333 0 302.867)"/><path d="M904.988 1946.05c-40.418 1.38-75.39-24.07-86.566-63.13-9.008-31.42 3.426-59.27 29.012-66.6 21.996-6.3 44.394 5.75 50.57 27.3 4.105 14.36 1.547 25.78-8.512 36.43-7.441 7.96-9.23 11.88-7.562 17.72 3.215 11.22 18.613 17.5 39.656 16.33l-16.598 31.95M996.922 1919.73c-39.957 1.24-74.934-24.2-86.121-63.26-8.992-31.43 2.98-59.15 29.019-66.61 22.004-6.29 44.391 5.75 50.567 27.3 4.113 14.37 1.105 25.91-8.508 36.44-7.766 8.54-9.234 11.88-7.566 17.71 3.214 11.23 18.617 17.5 39.207 16.46l-16.598 31.96M1681.27 1229.65c6.28.55 16.23 1.4 19.68 1.57 5.16.23 16.71-5.22 17.13-19.08.42-13.87-6.15-24.94-8.71-29.76-2.57-4.82-13.11-22.26-23.14-26.9-10.02-4.64-20.49-.79-23.21 3.76-1.69 2.8-5.26 9.82-7.76 14.8.78.56 1.42 1.05 1.95 1.43 2.65 1.93 12.16 9.67 14.08 16.02 1.92 6.37-.77 13.68-.77 13.68s9.45 3.34 11.15 11.51c1.01 4.88.45 9.43-.4 12.97zm-28.54-57.3c2.47-5.81 6.13-14.48 7.3-17.59 1.82-4.86.21-17.51-12.85-22.2-13.06-4.69-25.62-1.86-31-.91-5.37.96-25.22 5.59-32.72 13.69-7.51 8.1-7.09 19.24-3.61 23.24 2.06 2.38 7.28 7.61 11.2 11.48.95-.71 1.78-1.29 2.4-1.74 2.66-1.93 12.96-8.58 19.6-8.45 6.64.14 12.03 6.08 12.03 6.08s6.84-9.08 15.14-8.16c5.1.55 9.37 2.61 12.51 4.56zm-64.07 9.65c-4.75-4.13-11.49-9.96-14-11.95-4.04-3.23-16.58-5.61-25.07 5.35-8.49 10.98-9.69 23.79-10.45 29.2-.76 5.41-2.48 25.71 2.91 35.36 5.38 9.64 16.11 12.68 20.99 10.61 2.93-1.24 9.67-4.67 14.6-7.23-.52-1.42-.89-2.63-1.18-3.51-1.01-3.12-4.15-14.98-1.97-21.25 2.19-6.27 9.26-9.47 9.26-9.47s-6.28-9.39-2.85-17c2-4.45 5.04-7.76 7.76-10.11zm-9.88 64.19c-5.41 3.24-13.22 7.97-15.96 9.76-4.31 2.85-10.45 14.03-2.64 25.5 7.8 11.47 19.63 16.56 24.53 18.96 4.92 2.4 23.7 10.31 34.53 8.17 10.84-2.15 17.04-11.4 16.57-16.69-.28-3.35-1.39-11.45-2.17-16.93-1.6.07-2.95.03-3.92.03-3.29 0-15.53-.67-20.82-4.69-5.29-4.01-6.39-11.7-6.39-11.7s-10.63 3.04-16.81-2.57c-3.37-3.06-5.51-6.68-6.92-9.84zm57.55 28.59c1.42 6.15 3.64 15.69 4.54 18.97 1.38 5 10.12 14.29 23.44 10.41 13.32-3.88 21.81-13.55 25.61-17.48 3.8-3.93 17.12-19.35 18.43-30.31 1.32-10.97-5.57-19.73-10.74-20.93-3.33-.77-11.58-2.25-17.03-3.2-.36 1.21-.72 2.22-.96 2.97-1.01 3.13-5.44 14.56-10.9 18.36-5.45 3.78-13.37 3.02-13.37 3.02s-.12 10.49-7.37 14.63c-4.01 2.29-8.17 3.2-11.65 3.56" style="fill:#b91893;fill-opacity:1;fill-rule:evenodd;stroke:none" transform="matrix(.13333 0 0 -.13333 0 302.867)"/><path d="M1625.44 1194.41s-.27-9.39-.53-12.26c-.25-2.87-4.45-7.25-10.46-7.37-5.99-.13-15.31 5.88-17.71 7.63-2.39 1.75-8.25 5.59-11.35 12.47-3.09 6.87 1.24 12.28 3.82 13.41 2.59 1.11 12.73 4.96 12.73 4.96l-.28 1.18s-9-2.64-11.81-3.28c-2.82-.65-8.28 1.98-10.25 7.66-1.97 5.67.86 16.38 1.79 19.2.92 2.82 2.76 9.57 8.34 14.65 5.58 5.07 12.08 2.61 13.93.5 1.87-2.11 8.66-10.56 8.66-10.56l1.3.68s-5.56 7.7-7.04 10.18c-1.48 2.47-.66 8.47 4.12 12.1 4.79 3.63 15.85 4.24 18.82 4.24 2.97 0 9.96.33 16.51-3.41 6.54-3.74 6.22-10.68 4.78-13.1-1.42-2.42-7.37-11.5-7.37-11.5l1.05-1.02s5.61 7.66 7.5 9.84c1.9 2.18 7.86 3.25 12.79-.19 4.94-3.42 8.93-13.75 9.85-16.58.92-2.83 3.39-9.37 1.86-16.76-1.55-7.38-8.24-9.2-10.99-8.59-2.74.61-13.2 3.46-13.2 3.46l-.66-1.32s9.03-2.96 11.68-4.09c2.65-1.13 5.51-6.47 3.78-12.21-1.74-5.76-10.32-12.75-12.73-14.5-2.41-1.74-7.86-6.12-15.36-6.94-7.49-.82-11.3 4.98-11.58 7.78-.26 2.81-.79 13.64-.79 13.64zm-2.46 45.78a3.324 3.324 0 0 1 3.55-3.08c1.82.13 3.2 1.72 3.08 3.54-.14 1.83-1.72 3.21-3.54 3.09a3.326 3.326 0 0 1-3.09-3.55zm-6.31-2.97a3.327 3.327 0 0 1 4.42-1.61c1.66.78 2.38 2.76 1.6 4.42a3.32 3.32 0 0 1-4.42 1.6 3.315 3.315 0 0 1-1.6-4.41zm-4.87-5c1.33-1.28 3.43-1.25 4.7.07a3.32 3.32 0 0 1-.08 4.7 3.299 3.299 0 0 1-4.69-.09 3.305 3.305 0 0 1 .07-4.68zm18.09 8.48c-.53-1.75.45-3.61 2.2-4.14a3.32 3.32 0 0 1 4.15 2.2c.54 1.75-.45 3.61-2.21 4.14-1.75.55-3.61-.44-4.14-2.2zm-20.83-14.9c1.55-.66 3.3-.07 4.14 1.32-.55-1.42-.88-2.9-1-4.39a3.326 3.326 0 0 1-3.17 2.72 3.302 3.302 0 0 1-3.42-3.2 3.293 3.293 0 0 1 3.2-3.43 3.31 3.31 0 0 1 3.33 2.49c.02-1.41.22-2.8.61-4.16a3.331 3.331 0 0 1-3.86 1.32 3.299 3.299 0 0 1-2.05-4.22c.58-1.74 2.48-2.66 4.22-2.06a3.33 3.33 0 0 1 2.22 3.42c.49-1.23 1.15-2.39 1.96-3.48-1.21.79-2.82.74-3.97-.23a3.315 3.315 0 0 1-.42-4.67 3.331 3.331 0 0 1 4.7-.41c1.15.97 1.47 2.55.9 3.88.33-.36.69-.7 1.06-1.03.59-.5 1.19-.95 1.82-1.36-1.35.23-2.77-.4-3.47-1.67-.89-1.6-.3-3.62 1.3-4.51 1.6-.89 3.62-.31 4.52 1.3.7 1.28.48 2.81-.45 3.84 1.09-.5 2.22-.87 3.37-1.1-1.3-.3-2.35-1.38-2.55-2.78a3.326 3.326 0 0 1 2.83-3.75c1.82-.26 3.5 1 3.75 2.83a3.32 3.32 0 0 1-1.74 3.4c1.18-.07 2.35 0 3.51.19a3.324 3.324 0 0 1-1.41-3.51c.42-1.79 2.2-2.91 3.98-2.5 1.8.42 2.91 2.2 2.5 3.99a3.335 3.335 0 0 1-2.9 2.56c1.12.36 2.21.85 3.24 1.47-.78-1.1-.85-2.61-.05-3.78a3.32 3.32 0 0 1 4.61-.9 3.32 3.32 0 0 1 .9 4.62 3.334 3.334 0 0 1-3.64 1.34c.67.55 1.32 1.18 1.92 1.86.2.22.38.45.55.68a3.35 3.35 0 0 1 1.31-3.58c1.5-1.05 3.57-.69 4.63.81a3.32 3.32 0 0 1-.82 4.62c-1.21.86-2.81.78-3.92-.07.65 1.13 1.15 2.34 1.5 3.56.02-1.47 1.02-2.8 2.52-3.18 1.78-.44 3.59.64 4.03 2.42.44 1.78-.64 3.58-2.42 4.03a3.31 3.31 0 0 1-3.78-1.75c.24 1.43.3 2.88.15 4.32a3.317 3.317 0 0 1 3.54-2.19c1.81.22 3.1 1.88 2.88 3.7a3.316 3.316 0 0 1-3.69 2.89 3.332 3.332 0 0 1-2.92-3.12 15.44 15.44 0 0 1-1.48 4.3 3.33 3.33 0 0 1 4.15-.86c1.62.86 2.25 2.87 1.38 4.49a3.31 3.31 0 0 1-4.49 1.38 3.327 3.327 0 0 1-1.56-4.08c-.75 1.23-1.67 2.37-2.79 3.39 1.32-.64 2.95-.35 3.96.81a3.322 3.322 0 0 1-.33 4.68 3.324 3.324 0 0 1-4.69-.32 3.328 3.328 0 0 1-.16-4.16c-6.48 4.86-15.72 3.94-21.12-2.27-1-1.14-1.8-2.39-2.4-3.7.41 1.56-.38 3.24-1.92 3.9-1.69.71-3.64-.08-4.35-1.76-.72-1.69.06-3.65 1.75-4.35M1794.47 2147.14c-2.19 2.36-5.83.47-8.08-.81-3.75-2.07-4.47-8.72-9.07-9.03-3.51 1.8-7.26 2.09-10.08-.07-4.86-6.64-10.35-15.67-14.11-23.11-.25-1.77.08-3.22 1.05-4.45 7.36-5.83-7.48-11.97-2.88-19.49.83-4.94 7.17-6.93 11.35-10.04zm-16.77-75.36 30.45 65.91c-1.71 2.55-4.02 2.33-5.73 4.88-10.55-21.98-21.23-44.73-31.78-67.01.85-2 4.84-5.29 7.06-3.78zm13.89-9.83 30.01 66.54c-.37 2.46-4.08 3.35-6.18 5.18-9.82-22.06-20.5-45.83-30.82-67.76.85-2.26 5.05-5.43 6.99-3.96zm279.23-196.17c31.24 20.63 53.55 61.02 50.49 98.42-2.78 51.92-37.58 93.74-85.05 108.23-4.13 1.6-9.15 1.8-12.63 4.45-23.42 3.63-47.77-.49-71.23-5.91-11.68-.28-22.19 8.73-32.11 15.18-16.25 10.4-34.39 26.39-53.34 34.06-7.19 1.8-17.5.18-23.46-4.66-4.93 1.11-9.01 6.35-13.56 8.46-11.5-21.94-21.46-45.33-32.38-67.88 5.78-2.88 1.3-8.89 2.81-13.5 1.11-8.04 6.65-14.43 11.97-19.24l60.82-41.67c17.54-14.63 8.04-40.76 18.78-59.22 13.15-36.12 49.26-66.03 87.21-73.83 29.23-7.26 66.45-.16 91.68 17.11zm5.48 99.48-39.73-16.65 19.06-38.63-39.87 16.32-13.84-40.8-16.65 39.73-38.63-19.06 16.31 39.87-40.78 13.85 39.72 16.64-19.05 38.63 39.86-16.31 13.84 40.79 16.66-39.72 38.63 19.05-16.32-39.86 40.79-13.85M2269.9 1351.73c16.63 0 30.13-13.49 30.13-30.13 0-16.62-13.5-30.12-30.13-30.12-16.64 0-30.12 13.5-30.12 30.12 0 16.64 13.48 30.13 30.12 30.13" style="fill:#b91893;fill-opacity:1;fill-rule:evenodd;stroke:none" transform="matrix(.13333 0 0 -.13333 0 302.867)"/><path d="m331.883 1579.2.648-1.04.145.73zM341.438 1575.56l.07-.15.043.11zM325.965 1556.45l.043.11zM334.836 1553.07l.027.77.657-1.03z" style="fill:#c25ab4;fill-opacity:1;fill-rule:nonzero;stroke:none" transform="matrix(.13333 0 0 -.13333 0 302.867)"/><path d="m357.012 1609.99 1.953.69 1.773.89 1.586 1.09 1.356 1.17 1.289 1.33 1.101 1.54.793 1.39.653 1.71.937 3.15.215 3.31-.484 3.18-1.063 3.01-1.539 2.79-2.055 2.48-2.543 1.88-3.054 1.55-1.977.62-2.105.29-2.039.12-1.934-.3-2.027-.53-1.953-.7-1.844-.73-1.926-.95-5.336-4.1-4.672-5.77-3.804-7.28-2.774-8.32-1.187-8.92.586-9.07 2.593-8.94 5-8.41.903 6.82 1.437 5.83 2.02 4.97 2.867 4.11 3.375 3.41 4.051 2.75 4.476 2.2 5.352 1.74M319.074 1613.63l1.539 3.7.5 3.71-.351 3.53-1.098 3.28-1.719 3-2.097 2.36-2.61 2.03-2.875 1.36-3.039.89-3.191.17-3.246-.32-3.176-1.14-3.555-2.17-2.703-3-2.035-3.65-1.359-3.91-.676-3.13-.145-3.46.157-3.7.535-3.72 1.105-3.94 1.375-3.91 1.727-4.04 2.187-3.83 2.5-3.69 2.977-3.47 3.215-3.18 3.578-2.92 3.906-2.39 4.305-2.04 4.523-1.45 5.004-.87-4.312 5.43-3.094 5.2-2.031 4.94-.875 4.89.011 4.81.774 4.79 1.707 4.81 2.562 5.03M289.738 1589.23l-.797 2-.781 1.73-1.082 1.59-1.18 1.35-1.445 1.34-1.418 1.06-1.504.83-1.597.6-3.157.94-3.304.22-3.176-.48-3.016-1.07-2.793-1.54-2.476-2.05-1.992-2.5-1.551-3.05-.508-2.02-.395-2.07-.007-2.07.3-1.95.532-2.02.574-1.91.848-1.89.96-1.93 1.735-2.61 2.285-2.55 2.82-2.52 3.024-2.32 3.535-1.99 3.738-1.81 4.098-1.56 4.222-1.22 4.403-.76 4.523-.43 4.543-.03 4.531.63 4.551 1 4.379 1.58 4.367 2.25 4.043 2.75-3.531.31-3.281.6-3.02.63-2.816.8-2.66.89-2.305 1.14-2.211 1.36-1.902 1.5-1.742 1.58-1.661 1.8-1.5 1.87-1.257 2.17-1.141 2.13-1.176 2.4-.859 2.54-.77 2.76M286.113 1551.29l-1.894.86-1.817.69-1.836.3-1.878.2-1.848-.08-1.672-.28-1.754-.5-1.527-.59-3-1.72-2.356-2.1-2.039-2.61-1.351-2.87-.899-3.05-.176-3.19.329-3.24 1.136-3.17.961-1.93 1.207-1.63 1.403-1.44 1.601-1.26 1.805-1.08 1.847-.97 1.934-.73 1.977-.62 3.129-.67 3.457-.15 3.711.15 3.718.55 3.934 1.1 3.914 1.38 4.035 1.71 3.828 2.2 3.684 2.5 3.48 2.98 3.18 3.21 2.918 3.58 2.398 3.9 2.028 4.31 1.457 4.52.871 5.01-2.719-2.35-2.699-1.97-2.613-1.73-2.606-1.37-2.512-1.12-2.421-.9-2.415-.52-2.48-.36-2.391-.13-2.418.15-2.382.25-2.403.52-2.433.79-2.5.96-2.414 1.17-2.489 1.34M310.5 1521.97l-1.996-.8-1.727-.78-1.586-1.09-1.363-1.17-1.332-1.45-1.058-1.43-.836-1.5-.711-1.54-.832-3.21-.215-3.3.484-3.18 1.07-3.01 1.532-2.8 2.054-2.48 2.496-1.98 2.946-1.52 2.133-.55 2.066-.39 1.965.03 2.055.27 2.019.53 1.914.57 1.883.85 1.926.96 5.176 4.02 4.828 5.84 3.808 7.27 2.774 8.32 1.183 8.93-.582 9.08-2.594 8.92-5.117 8.46-.672-6.9-1.546-5.8-2.137-4.91-2.758-4.16-3.371-3.4-4.043-2.76-4.527-2.32-5.309-1.62M348.438 1518.34l-1.536-3.71-.504-3.72.352-3.52 1.098-3.28 1.605-2.95 2.215-2.41 2.492-1.99 2.985-1.4 3.043-.9 3.195-.16 3.25.32 3.164 1.14 3.558 2.17 2.708 3 2.035 3.64 1.363 3.92.668 3.13.141 3.46-.153 3.71-.535 3.71-1.105 3.93-1.379 3.92-1.715 4.04-2.192 3.83-2.5 3.68-2.98 3.48-3.219 3.17-3.57 2.92-3.91 2.41-4.301 2.03-4.527 1.46-5.008.86 4.32-5.42 3.094-5.22 2.023-4.93.992-4.94-.121-4.77-.781-4.78-1.863-4.89-2.402-4.94M377.77 1542.72l.695-1.95.883-1.77 1.09-1.58 1.175-1.37 1.332-1.28 1.535-1.11 1.504-.84 1.547-.71 3.203-.83 3.301-.22 3.18.49 3.012 1.07 2.8 1.54 2.473 2.04 1.875 2.55 1.508 2.95.668 2.08.281 2.11.082 1.92-.266 2.05-.531 2.02-.683 1.96-.731 1.84-.965 1.93-1.734 2.61-2.395 2.61-2.711 2.46-3.019 2.32-3.543 2-3.734 1.81-4.098 1.56-4.219 1.22-4.402.75-4.528.43-4.542.03-4.536-.61-4.539-1-4.383-1.59-4.375-2.25-4.085-2.87 3.531-.3 3.379-.38 2.968-.74 2.817-.81 2.664-.88 2.254-1.25 2.262-1.25 1.898-1.5 1.742-1.57 1.664-1.81 1.453-1.99 1.301-2.06 1.102-2.23 1.101-2.25.922-2.69.817-2.66M381.398 1580.66l1.891-.84 1.82-.69 1.836-.32 1.875-.19 1.739.11 1.785.24 1.754.51 1.523.59 2.961 1.61 2.402 2.21 1.993 2.5 1.394 2.98.899 3.04.171 3.2-.328 3.24-1.136 3.17-.957 1.93-1.207 1.62-1.403 1.46-1.605 1.25-1.801 1.08-1.848.96-1.933.74-1.981.62-3.125.67-3.461.14-3.707-.15-3.715-.54-3.941-1.1-3.906-1.38-4.039-1.72-3.828-2.19-3.684-2.5-3.481-2.97-3.171-3.22-2.926-3.57-2.399-3.91-2.023-4.31-1.465-4.52-.863-5 2.722 2.34 2.696 1.97 2.617 1.74 2.598 1.35 2.507 1.13 2.43.9 2.41.52 2.524.47 2.351.01 2.414-.13 2.379-.26 2.407-.52 2.429-.8 2.348-1.02 2.574-1.11 2.484-1.34" style="fill:#c25ab4;fill-opacity:1;fill-rule:nonzero;stroke:none" transform="matrix(.13333 0 0 -.13333 0 302.867)"/><path d="M877.441 2006.34s4.977-9.98 9.071-15.87c4.09-5.9 3.617-15.87-5.446-22.23-9.066-6.36-23.574-10.42-30.832-11.79-7.265-1.37-10.894-1.37-10.894-1.37s-3.645 0-10.902 1.37c-7.266 1.37-21.77 5.43-30.84 11.79-9.063 6.36-9.535 16.33-5.442 22.23 4.098 5.89 9.067 15.87 9.067 15.87l-2.243 2.03s-9.98-4.97-15.875-9.07c-5.894-4.09-15.867-3.61-22.218 5.45-6.36 9.07-10.43 23.57-11.793 30.84-1.367 7.26-1.367 10.89-1.367 10.89s0 3.64 1.367 10.9c1.363 7.27 5.433 21.77 11.793 30.83 6.351 9.07 16.324 9.55 22.218 5.45 5.895-4.09 15.875-9.06 15.875-9.06l2.274 2.69s-4.973 9.98-9.066 15.87c-4.09 5.91-3.625 15.87 5.441 22.23 9.066 6.36 23.574 10.43 30.836 11.8 7.258 1.36 10.898 1.36 10.898 1.36s3.637 0 10.899-1.36c7.265-1.37 21.769-5.44 30.84-11.8 9.062-6.36 9.531-16.32 5.433-22.23-4.094-5.89-9.531-15.87-9.531-15.87l2.273-2.27s9.973 4.97 15.871 9.07c5.899 4.09 15.875 3.62 22.223-5.44 6.352-9.08 10.43-23.58 11.797-30.84 1.359-7.26 1.359-10.9 1.359-10.9s0-3.64-1.359-10.9c-1.367-7.27-5.445-21.77-11.797-30.83-6.348-9.07-16.324-9.53-22.223-5.44-5.898 4.09-15.871 9.06-15.871 9.06zm-80.265 40.02c0 22.66 18.383 41.04 41.054 41.04 22.668 0 41.047-18.38 41.047-41.04 0-22.68-18.379-41.06-41.047-41.06-22.671 0-41.054 18.38-41.054 41.06zm21.375-.45c0 10.27 8.32 18.6 18.594 18.6 10.269 0 18.593-8.33 18.593-18.6 0-10.27-8.324-18.59-18.593-18.59-10.274 0-18.594 8.32-18.594 18.59" style="fill:#d16cbd;fill-opacity:1;fill-rule:evenodd;stroke:none" transform="matrix(.13333 0 0 -.13333 0 302.867)"/><path d="m243.898 1474.26 149.286-82.88s-66.215-223.53-69.539-229.78c-4.684-8.79-7.641-11.53-15.969-18.13-5.969-4.73-17.008-7.67-17.008-7.67l-167.578 92.17 70.629 210.51 12.004-6.69-64.727-198.73 152.535-83.98s14.004 3.11 20.5 15.31c4.793 9.02 4.875 12.82 5.926 17.54l-146.687 81.81 70.628 210.52" style="fill:#d16cbd;fill-opacity:1;fill-rule:nonzero;stroke:none" transform="matrix(.13333 0 0 -.13333 0 302.867)"/><path d="M1257.22 1591.29s24.41 3.42 34.49 17.13c12.91 17.54 13.81 39.13 6.29 57.97-7.51 18.86-30.4 25.84-30.4 25.84zm27.68 220.55s39.59 10.3 59.25 28.84c19.65 18.54 32.22 31.27 39.04 57.07 6.82 25.79-9.54 41.34-27.7 42.04-18.16.71-37.66-18.23-47.44-41-9.79-22.78-23.15-86.95-23.15-86.95zm-31-115.13s-16.44 2.92-29.47-5.8c-10.73-7.18-19.56-25.69-19.56-25.69s-7.87 4.82-5.4 17.94c2.48 13.14 3.28 24.16 20.36 36.71 17.07 12.54 41.58 10.86 41.58 10.86l3.46 41.11s-28.68-7.79-58.03-31.88c-30.48-25-50.5-71.25-26.44-108.57 24.06-37.31 67.57-41.8 67.57-41.8zm21.75 113.43s11.24 65.07 21.61 93.28c10.37 28.21 28.25 49.25 47.79 55.06 19.53 5.81 66.36 1.64 58.3-63.38-8.06-65.03-76.29-99.49-100.61-109.2-19.32-7.71-25.87-9.28-25.87-9.28l-5.35-48.81s29.65-4.11 45.31-30.83c18.31-31.26 9.3-80.62-12.81-100.57-23.56-21.27-48.87-19.85-48.87-19.85s-1.3-27.61-12.08-50.09c-12.82-26.74-29.96-40.43-60.11-34.57-11.36 2.21-19.69 8.19-25.64 14.8-12.68 10.46-17.52 28.42-10.7 44.28 8.28 19.29 30.62 28.2 49.9 19.92 19.28-8.28 28.2-30.63 19.92-49.9-4.66-10.84-13.75-18.41-24.25-21.47 5.95-1.16 11.8.18 20.81 5.35 16.97 9.75 26.64 32.26 28.99 44.35 2.36 12.1 3.06 30.25 3.06 30.25-17.2 3.97-39.74 9.97-60.38 28.79-20.65 18.8-49.39 60.97-25.07 117.59 24.32 56.62 74.2 71.02 86.47 75.69 12.27 4.66 29.58 8.59 29.58 8.59" style="fill:#b91893;fill-opacity:1;fill-rule:nonzero;stroke:none" transform="matrix(.13333 0 0 -.13333 0 302.867)"/><path d="M462.633 1469.07c-6.578 2.06-7.117.15-13.695-1.09 0 8.22 28.777 16.86 34.121 20.97 0 0-27.297 2.74-43.258-.47-5.863.54-8.981-.39-13.067 1.7-1.234 0-2.468.41-3.699.41-1.574-.38-3.281-1.05-6.168-1.59 0 7.99 37.172 8.87 42.363 12.86 0 0-26.503 2.65-42.011-.47-5.688.52-8.715-.37-12.692 1.66-1.195 0-2.39.41-3.589.41 2 7.58 51.777 7.07 62.558 7.07 10.551 3.6 12.301 16.91 16.359 28.24 1.27 3.5 2.469 6.83 3.688 9.38 2.93 11.22 3.555 25.77 3.555 27.19-.407.94.082 3.11-.586 3.52.265 2-1.879 4.95.668 6.03-1.477 1.75 2.148 3.09 0 4.3 2.148 1.74.406 1.74.269 2.15 1.473.93-.269 2 .266 3.36-3.621.8-.399 4.02-1.473 6.57-4.566 8.18-16.109 10.2-22.554 16.78-5.372.66-8.321 5.63-13.555 6.97-1.742.8-2.953 3.63-5.5 3.09-4.031 5.9-12.082 8.46-16.106 14.9-14.496 12.88-19.734 31.54-26.98 48.46-.277 7.91-4.031 13.82-4.832 21.34.265 4.43-.27 8.58-1.883 12.35-.539 13.82-2.551 27.38-1.742 41.21 0 13.95 2.953 24.56 4.426 37.97 3.355 23.23 29.394 32.63 31.011 56.12 1.477 12.89 8.59 22.28 13.012 33.43 2.016 3.08-.801 5.9-2.012 8.18-9.394 6.71-19.187 12.75-28.992 19.19-1.742 2.02-5.637 3.76-6.305 6.99 1.075.93 2.411 1.73 3.891 1.88 6.039-4.3 11.813-7.8 17.582-10.61 10.07-3.63 20-7.11 28.996-13.03 1.606-.39 4.297-2.54 5.77 0-1.649 4.77-2.801 8.82-11.278 20.01-8.3 10.98-17.312 20.27-29.933 27.92 1.48.8 3.762.8 5.64 1.2 15.168-4.69 26.711-15.43 39.735-25.37 10.062-4.7 21.609 1.21 31.941-2 8.992-3.5 19.063-5.92 24.567-14.23 2.949-3.63 6.711-4.17 7.382-9.53 3.356-5.24 5.5-11.01 8.051-16.91.672-9.94 2.547-18 2.149-27.53-.668-17.45-8.727-34.09-7.789-51.67 3.765-22.83 20.004-38.79 30.605-58.26.805-.39 17.852-34.63 24.027-52.07 2.551-12.09 6.313-24.71 10.872-36.38 0-3.9.941-7.39 2.82-10.61 2.281-11.81 10.469-20.67 16.918-30.33 26.304-31.54 51.535-63.89 77.176-94.36 22.816-25.78 42.152-54.9 67.519-78.92 1.207-1.49 1.473-4.17-.535-4.83-2.824-1.49-6.984-.27-9.809.93-9.394 1.88-12.879 13.15-21.605 15.98-6.844 4.15-6.176-5.65-11.547-5.78-3.352.4-6.305 2.42-6.703 5.78-8.594-.68-12.356 8.85-16.109 14.36-16.911 24.16-35.977 46.57-55.84 68.18-12.348 15.18-25.235 30.07-38.926 43.62-1.477 1.08-3.359 3.63-5.102 3.5 5.239-22.96 13.828-43.9 17.043-67.52 2.149-4.97-.129-11.14 3.496-15.43-8.457 4.15-10.066 11.94-14.5 17.71-1.476 7.93-8.722 14.5-12.074 21.87-7.793 11.82-16.512 23.91-22.148 36.38-2.02 3.49-2.692 8.06-5.774 10.61-2.683-1.88-6.445-1.35-9.531-2.15-4.434-8.86 8.996-18.52-.937-26.98 1.476-6.7 4.695-13.55 4.293-20.8-1.208-2.28-1.614-5.78-5.235-4.69-6.578 4.69-16.254 22.94-23.367 28.04-3.113-9.49-5.262-20.88-6.82-30.82l-.95-6.29c-1.777-6.63-2.097-13.02-4.531-20.25 9.574-1.46 16.828-4.03 12.246-8.61-3.277 1.72-10.019.27-13.308 1.13-.637.17-1.356.16-1.993.31 0-1.23-.41-2.06-.41-3.29.41-.41 52.215-.41 41.524-11.1-3.371 1.77-10.317.27-13.699 1.17-20.149 5.3-36.422-.59-49.204-4.05-12.488-6.23-15.496-14.13-26.183-15.36zm.539 27.61c8.148-.01 21.933.19 25.508.19 4.07 1.35 2.98 4.13 5.75 7.19-10.524-.7-21.832-4.49-29.61-6.6zm34.105 13.77c5.18 9.16 7.868 20.26 11.071 26.69 1.91 9.5 5.351 29.68 3.945 29.89-1.359.2-10.82 4.76-12.598 4.82-1.289.05-3.859-14.93-5.812-24.86l-1.426-6.61c-2.234-8.37-3.871-15.53-6.48-26.15 0-1.2-.395-1.99-.395-3.19.121-.12 5.16-.21 11.695-.59" style="fill:#d16cbd;fill-opacity:1;fill-rule:nonzero;stroke:none" transform="matrix(.13333 0 0 -.13333 0 302.867)"/><path d="M91.25 1051.74c0-44.91 36.219-81.111 81.102-81.111 44.894 0 81.093 36.201 81.093 81.111 0 44.87-36.199 81.09-81.093 81.09-44.883 0-81.102-36.22-81.102-81.09" style="fill:#d16cbd;fill-opacity:1;fill-rule:evenodd;stroke:none" transform="matrix(.13333 0 0 -.13333 0 302.867)"/><path d="m1873.2 1739.55 4.21-2.06c-.8-.63-1.52-1.48-2.02-2.5-1.77-3.7-.72-6.54-.72-6.54l2.59 5.4c.55 1.09 1.46 2.01 2.36 2.57l5.77-2.83a7.069 7.069 0 0 1-2.14-2.6c-1.76-3.7-.72-6.54-.72-6.54l2.58 5.4c.59 1.15 1.57 2.1 2.51 2.67l5.72-2.73a7.116 7.116 0 0 1-2.14-2.59c-1.76-3.72-.72-6.55-.72-6.55l2.58 5.4c.58 1.15 1.57 2.09 2.51 2.66l7.62-3.67c.5-.05 1.17-.37 1.58-.55 1.6-.87 1.81-2.69 1-4.61l-.29-.62-11.87-24.84-5.02 2.37c-.5-.45-.96-.99-1.34-1.58l-.53-.17-8.08 3.86c.04.5.2 1.32.71 2.38.66 1.38 2.01 2.12 3.26 1.52 1.04-.49 1.53-1.7 1.29-2.88l.32.54c.8 1.68.23 3.64-1.28 4.35-.47.23-.97.3-1.45.25l.41.73c.6 1.24.64 2.59.22 3.74-1.14-.4-2.17-1.28-2.76-2.53l-.31-.78c-.27.42-.63.75-1.1.98-1.51.71-3.39-.06-4.18-1.73l-.23-.6c.77.93 2.02 1.3 3.05.8 1.25-.59 1.54-2.1.87-3.49-.51-1.06-1.04-1.69-1.41-2.04l-10.21 4.88c.03.5.19 1.33.69 2.38.67 1.39 2.02 2.12 3.27 1.53 1.03-.51 1.53-1.7 1.29-2.89l.32.55c.8 1.68.22 3.63-1.28 4.35-.47.22-.97.29-1.46.25l.41.72c.61 1.24.65 2.59.24 3.74-1.15-.4-2.18-1.28-2.78-2.52l-.29-.79c-.27.42-.65.76-1.11.98-1.52.72-3.39-.06-4.19-1.74l-.22-.59c.78.93 2.02 1.3 3.05.81 1.25-.6 1.53-2.11.88-3.5-.51-1.05-1.05-1.69-1.43-2.03l-9.6 4.58 12.32 25.69c1.26 2.19 3.49 3.81 5.43 3.7.51-.05 1.17-.37 1.58-.56zm31.4-19.83.26.55c.35.8.42 1.51.35 1.98-.1.48-.29.7-.55.83-1.56.26-3.73-1.14-4.74-3.11l-10.08-21.09c.73.34 1.5.53 2.28.48.37-.02.74-.11 1.08-.27.46-.23.83-.57 1.08-.98l10.32 21.61" style="fill:#d16cbd;fill-opacity:1;fill-rule:nonzero;stroke:none" transform="matrix(.13333 0 0 -.13333 0 302.867)"/><path d="m1966.26 1694.94 4.21-2.06c-.8-.64-1.52-1.49-2.01-2.51-1.78-3.7-.73-6.54-.73-6.54l2.58 5.4c.56 1.09 1.47 2 2.37 2.57l5.77-2.83a6.989 6.989 0 0 1-2.14-2.6c-1.77-3.71-.72-6.54-.72-6.54l2.58 5.4c.58 1.15 1.57 2.1 2.51 2.66l5.72-2.71a7.32 7.32 0 0 1-2.14-2.6c-1.77-3.72-.72-6.55-.72-6.55l2.57 5.4c.6 1.14 1.58 2.09 2.51 2.67l7.62-3.69c.51-.03 1.17-.36 1.57-.54 1.62-.87 1.83-2.69 1.02-4.61l-.29-.62-11.88-24.84-5.03 2.37c-.5-.45-.95-.99-1.34-1.58l-.51-.16-8.08 3.85c.04.5.2 1.33.7 2.38.67 1.38 2.02 2.11 3.27 1.52 1.03-.5 1.53-1.7 1.28-2.88l.33.55c.8 1.67.22 3.62-1.28 4.35-.47.21-.97.29-1.46.25l.41.71c.61 1.25.65 2.6.23 3.75-1.15-.4-2.16-1.29-2.77-2.53l-.29-.78c-.27.41-.64.75-1.11.98-1.52.72-3.38-.06-4.19-1.74l-.23-.59c.77.93 2.02 1.3 3.06.8 1.25-.59 1.53-2.1.87-3.49-.51-1.06-1.05-1.69-1.42-2.04l-10.2 4.88c.03.5.18 1.32.69 2.38.67 1.38 2.01 2.11 3.26 1.52 1.04-.5 1.54-1.69 1.29-2.89l.32.56c.81 1.67.23 3.62-1.27 4.35-.47.22-.97.29-1.46.25l.41.72c.61 1.24.64 2.59.22 3.73-1.14-.39-2.15-1.27-2.76-2.52l-.29-.78c-.28.41-.65.75-1.11.97-1.52.73-3.38-.05-4.18-1.73l-.23-.59c.77.93 2.01 1.3 3.05.81 1.25-.6 1.53-2.12.87-3.5-.51-1.06-1.05-1.69-1.42-2.04l-9.6 4.59 12.31 25.68c1.27 2.19 3.48 3.82 5.44 3.7.5-.04 1.17-.36 1.58-.55zm31.4-19.84.27.54c.33.81.41 1.51.33 1.99-.09.48-.28.7-.54.83-1.57.27-3.72-1.15-4.74-3.11l-10.09-21.09c.73.35 1.51.53 2.29.49.37-.04.74-.12 1.07-.28.47-.24.83-.57 1.09-.97l10.32 21.6M1938.97 1758.05l4.22-2.07a6.892 6.892 0 0 1-2.03-2.5c-1.76-3.71-.72-6.54-.72-6.54l2.59 5.4c.56 1.09 1.46 2 2.35 2.58l5.78-2.83a7.235 7.235 0 0 1-2.14-2.6c-1.77-3.71-.73-6.55-.73-6.55l2.59 5.4c.6 1.15 1.56 2.1 2.5 2.66l5.73-2.72a7.053 7.053 0 0 1-2.14-2.6c-1.77-3.7-.72-6.53-.72-6.53l2.58 5.4c.59 1.14 1.56 2.09 2.51 2.66l7.61-3.68c.5-.05 1.18-.37 1.58-.56 1.6-.86 1.83-2.69 1.01-4.6l-.3-.61-11.87-24.85-5.03 2.37c-.49-.45-.95-.99-1.32-1.58l-.54-.17-8.06 3.86c.03.5.19 1.32.69 2.39.66 1.38 2.02 2.11 3.27 1.51 1.03-.49 1.53-1.69 1.29-2.88l.31.55c.8 1.68.24 3.62-1.27 4.34-.47.22-.96.3-1.46.26l.42.72c.59 1.24.64 2.6.22 3.74-1.14-.4-2.17-1.28-2.76-2.53l-.3-.78c-.27.42-.65.76-1.12.98-1.5.72-3.38-.06-4.18-1.74l-.21-.59c.76.94 2.01 1.31 3.04.8 1.25-.59 1.53-2.11.86-3.49-.49-1.06-1.04-1.69-1.4-2.04l-10.22 4.88c.04.5.2 1.33.71 2.38.65 1.39 2.01 2.12 3.26 1.53 1.03-.5 1.53-1.7 1.29-2.88l.32.54c.8 1.68.22 3.62-1.28 4.34-.46.23-.97.31-1.46.26l.42.72c.59 1.24.64 2.6.23 3.74-1.15-.4-2.18-1.28-2.77-2.52l-.31-.78c-.26.41-.64.75-1.1.97-1.51.72-3.39-.06-4.19-1.73l-.21-.6c.77.94 2.01 1.31 3.04.81 1.25-.6 1.53-2.11.86-3.5-.49-1.05-1.04-1.69-1.41-2.04l-9.59 4.59 12.3 25.69c1.27 2.18 3.5 3.81 5.44 3.7.51-.05 1.17-.37 1.57-.56zm31.4-19.84.26.54c.35.82.42 1.52.34 1.99-.1.49-.27.7-.55.84-1.55.26-3.72-1.15-4.72-3.12l-10.09-21.09c.72.34 1.5.53 2.26.49.39-.02.75-.12 1.09-.28.48-.23.84-.57 1.09-.97l10.32 21.6" style="fill:#d16cbd;fill-opacity:1;fill-rule:evenodd;stroke:none" transform="matrix(.13333 0 0 -.13333 0 302.867)"/><path d="m1869.11 1871.68 230.38-110.05s-3.55-7.89-13.99-30.4c-10.43-22.53-25.05-54.52-46.97-85.13-21.94-30.61-35.82-42.69-52.13-55.47-16.31-12.77-27.72-19.77-43.39-26.58-15.67-6.82-38.86-13.05-54.99-14.98-16.14-1.91-32.09-2.41-32.09-2.41s-12.92 14.57-24.25 34.25c-11.34 19.68-25.34 55.63-24.64 99.27.7 43.63 13.07 85.53 27.15 118.44 13.4 31.33 34.92 73.06 34.92 73.06zm6.43-24.47s-1.7-3.39-4.36-8.85c33.6-14.47 68.74-30 104.68-46.7 34.19-15.88 66.53-33.13 97.35-49.72 2.36 5.24 3.77 8.55 3.77 8.55l-3.07 1.48c-31.09 13.44-63.42 27.81-96.44 43.14-35.26 16.39-68.57 34.23-100.27 51.3zm-6.72-13.7c-1.32-2.73-2.76-5.75-4.3-8.98 28.77-12.39 58.68-25.56 89.24-39.58l5.09 1.97c-31.49 15.11-61.41 31.18-90.03 46.59zm-6.6-13.86c-1.37-2.91-2.77-5.95-4.19-9.02 24.53-10.57 49.89-21.7 75.78-33.45l5.55 2.16c-26.8 13.22-52.45 27.02-77.14 40.31zm-6.45-13.95c-1.35-3.02-2.72-6.07-4.03-9.07 20.18-8.69 40.91-17.77 62.04-27.25l6.28 2.45c-22.18 11.22-43.57 22.72-64.29 33.87zm-6.19-14.07c-.73-1.7-1.43-3.38-2.12-5.02-.56-1.39-1.13-2.75-1.69-4.11 15.66-6.75 31.64-13.73 47.89-20.95l7.26 2.83c-17.59 9.08-34.69 18.28-51.34 27.25zm-5.88-14.26a396.24 396.24 0 0 1-3.53-9.16c10.95-4.72 22.07-9.56 33.32-14.51l8.43 3.28c-13 6.83-25.74 13.67-38.22 20.39zm-5.47-14.48c-1.07-3.06-2.1-6.12-3.06-9.23 5.96-2.58 12-5.2 18.07-7.84l9.77 3.8c-8.36 4.45-16.62 8.89-24.78 13.27zm-4.75-14.85c-1.05-3.63-2.01-7.34-2.9-11.2l.27.27 13.33 5.18c-3.58 1.92-7.15 3.84-10.7 5.75zm-4.07-16.49c-1.61-7.66-2.95-15.92-4.05-25.18-1.87-15.98-2.42-30.42-1.33-44.39l106.87 41.15 9.01-28.81.95-3 1.71-5.5 4.63-14.4-.15.06 1.93-6.13.19-.1 4.35-13.65-.29.12 2.21-7.05.33-.17 4.03-12.66-.39.17 2.55-8.17.46-.25 2.95-9.27.91.61c17.88 11.99 35.32 29.29 49.4 47.1l-.21.15-45.78 143.57-140.07-54.2-.13.04zm-4.95-74.42c.2-1.9.43-3.78.69-5.67 22.48-9.89 45.5-20.25 68.87-31.11 21.68-10.07 42.63-20.7 62.93-31.37 1.52.92 3.04 1.86 4.55 2.82l-.89 2.74c-21.18 9.36-42.83 19.13-64.79 29.33-23.61 10.97-46.34 22.58-68.3 34.19l-2.72-1.07zm2.51-16.27c.54-2.64 1.14-5.28 1.81-7.93 19.19-8.5 38.75-17.36 58.55-26.55 18.24-8.47 35.94-17.33 53.17-26.27 2.28 1.09 4.53 2.22 6.77 3.41-19.06 8.45-38.47 17.24-58.12 26.37-21.43 9.95-42.13 20.43-62.18 30.97zm5.39-20.27c.52-1.59 1.06-3.19 1.64-4.8.3-.86.61-1.71.92-2.54 15.06-6.74 30.33-13.69 45.74-20.85 13.96-6.49 27.62-13.2 41-20.02 2.33.8 4.62 1.64 6.89 2.53-15.17 6.79-30.55 13.79-46.08 21-17.15 7.97-33.85 16.28-50.11 24.68zm8.89-21.91c1.17-2.39 2.37-4.68 3.58-6.88 9.65-4.37 19.37-8.83 29.15-13.37 8.45-3.93 16.78-7.94 25.01-12 .95.18 1.93.37 2.91.57 1.46.3 2.93.62 4.36.96-10.08 4.57-20.23 9.23-30.47 13.97-11.73 5.45-23.24 11.06-34.54 16.75zm14.41-24.36c4.75-6.84 8.17-10.79 8.17-10.79s5.19-.51 14.53.16c-3.08 1.41-6.16 2.84-9.25 4.27-4.51 2.1-9 4.22-13.45 6.36zm163.4 72.09.22.29c2.32 3.08 4.53 6.08 6.61 9.02-3.7 1.61-7.44 3.23-11.18 4.86l4.32-13.88zm10.49 14.54c1.76 2.58 3.46 5.14 5.1 7.69-8.56 3.71-17.24 7.49-25.99 11.34l2.94-9.43c6.04-3.21 12.02-6.41 17.95-9.6zm8.39 12.9c1.63 2.64 3.23 5.29 4.82 8.01a4351.8 4351.8 0 0 0-40.15 17.57l2.53-8.1c11.12-5.85 22.06-11.7 32.8-17.48zm7.82 13.21c1.51 2.67 3.02 5.42 4.56 8.24-17.55 7.59-35.52 15.46-53.79 23.64l2.17-6.96c16.09-8.3 31.75-16.69 47.06-24.92zm7.37 13.45c.48.92.97 1.85 1.48 2.79.98 1.85 1.94 3.72 2.91 5.61-21.81 9.41-44.23 19.27-67.08 29.61l1.88-6.06c20.94-10.57 41.18-21.39 60.81-31.95zm7.02 13.63c1.43 2.89 2.82 5.75 4.16 8.54-25.89 11.18-52.66 22.99-79.99 35.48l1.68-5.39c25.72-12.65 50.39-25.84 74.15-38.63zm6.67 13.83c1.44 3.07 2.77 5.98 3.98 8.62-29.86 12.89-60.91 26.64-92.61 41.27l1.55-4.99c30.41-14.53 59.34-29.98 87.08-44.9zm28.42 33.35-225.11 107.57s-18.36-37.07-22.43-45.61c-13.81-28.95-32.73-73.15-37.55-122.49-2.53-26.11-.76-51.08 5.28-74.2 6.97-26.74 19.83-51.64 38.18-73.95l1.89-2.32 4.36 9.14c-85.47 96.7-20.66 230.12 6.5 283.88 2.55 5.03 7.4 14.94 7.4 14.94l211.52-100.98zm-165.14-72.36-2.64 8.18-8.12-3.18 8.06-3.73zm6.54-20.26-1.73 5.35-12.38 5.72c-6 2.78-11.93 5.62-17.83 8.48l-5.41-2.13 21.43-9.87c5.36-2.48 10.67-5 15.92-7.55zm6.63-20.5-1.89 5.86c-8.46 3.85-16.96 7.76-25.52 11.73-10.4 4.84-20.62 9.78-30.69 14.81l-6.01-2.35c11.53-5.2 23.16-10.52 34.88-15.96 9.91-4.61 19.63-9.32 29.23-14.09zm6.69-20.72-2.16 6.68c-12.74 5.74-25.62 11.62-38.62 17.66-14.79 6.87-29.24 14-43.37 21.21l-6.85-2.68c15.91-7.11 32.08-14.46 48.4-22.05 14.54-6.74 28.73-13.73 42.6-20.82zm6.76-20.91-2.51 7.75c-16.98 7.58-34.25 15.41-51.71 23.52-19.19 8.91-37.8 18.26-55.89 27.68l-7.94-3.1c20.31-8.97 41.03-18.34 62.02-28.09 19.24-8.94 37.9-18.31 56.03-27.76" style="fill:#d16cbd;fill-opacity:1;fill-rule:nonzero;stroke:none" transform="matrix(.13333 0 0 -.13333 0 302.867)"/><path d="m239.824 633.73-7.414 4.969-173.183-27.23v-42.047l85.351-21.043V91.941L44.375 59.77l1.242-43.3h296.891v43.3L241.066 86.99zM850.93 143.852c-49.34-29.602-112.227-57.961-180.063-57.961-118.387 0-159.09 107.3-159.09 228.148 0 107.301 37 241.699 176.36 241.699 54.254 0 117.16-9.859 162.793-30.816zm1.218-46.864 17.278-88.797 7.39-4.93L1033.44 25.47V67.39l-86.338 20.96v960.119l-8.618 6.17-173.894-22.21v-41.918l86.34-22.203 1.218-369.399c-49.312 25.891-118.382 35.781-161.543 35.781-199.789 0-278.71-150.472-278.71-330.519C411.895 119.18 501.922.801 653.605.801c38.223 0 70.282 6.168 110.985 16.039l85.094 80.148zM2700.92 592.52V432.949l-35.86-3.719-49.49 108.848c-39.58 27.211-89.05 32.16-115.04 32.16-53.19 0-101.45-23.488-101.45-81.629 0-55.66 56.92-75.461 159.6-117.519 108.85-44.531 180.6-79.16 180.6-189.25C2739.28 79.148 2658.87 0 2490.64 0c-74.22 0-150.91 17.32-201.63 44.52l-9.91 170.699 30.94 7.441 60.62-121.23c38.35-28.45 94.01-38.352 124.92-38.352 100.21 0 143.48 39.602 143.48 97.731 0 77.91-64.29 95.242-147.17 132.351-98.97 44.52-192.98 76.692-192.98 179.371 0 76.688 46.99 162.039 211.52 162.039 45.77 0 122.46-8.66 190.49-42.05zm-663.53-449.032c-56.88-34.636-129.87-63.09-185.53-63.09-58.14 0-89.08 38.34-89.08 96.493 0 43.289 22.28 124.937 274.61 136.07zm0-49.476c4.97-90.301 48.25-92.774 77.94-92.774 34.64 0 87.83 9.89 118.76 29.672v38.36l-100.2 21.02V439.12c0 150.93-68.03 194.207-195.43 194.207-82.88 0-163.29-21.027-241.22-64.308l17.32-50.719c96.47 28.449 166.99 32.168 200.37 32.168 85.36 0 122.46-29.699 122.46-116.289v-72.981c-165.74-4.961-258.52-25.988-310.46-59.371-61.86-38.359-65.56-100.219-65.56-132.379C1661.37 60.602 1738.06 0 1835.77 0c38.36 0 74.22 6.18 115.05 16.07l84.11 79.16zm-694.43 467.566c116.28 0 134.84-91.527 134.84-155.848l-301.83-28.449c1.25 72.969 30.92 184.297 166.99 184.297zm256.06-202.859c-2.49 119.98-39.58 274.609-242.46 274.609-222.65 0-288.21-170.707-288.21-321.617C1068.35 117.512 1147.53 0 1346.68 0c80.4 0 164.51 30.91 223.89 75.46l-19.8 40.81c-74.22-34.641-139.77-40.81-175.65-40.81-159.57 0-202.87 82.88-202.87 252.329l414.4 19.813 12.37 11.117" style="fill:#231f20;fill-opacity:1;fill-rule:evenodd;stroke:none" transform="matrix(.13333 0 0 -.13333 0 302.867)"/><path d="M1992.89 1321.9c13.54 0 24.51-10.98 24.51-24.52 0-13.53-10.97-24.51-24.51-24.51-13.54 0-24.52 10.98-24.52 24.51 0 13.54 10.98 24.52 24.52 24.52" style="fill:#b91893;fill-opacity:1;fill-rule:nonzero;stroke:none" transform="matrix(.13333 0 0 -.13333 0 302.867)"/><path d="M868.543 1792.89c13.539 0 24.516-10.98 24.516-24.52s-10.977-24.51-24.516-24.51c-13.539 0-24.52 10.97-24.52 24.51 0 13.54 10.981 24.52 24.52 24.52" style="fill:#c25ab4;fill-opacity:1;fill-rule:nonzero;stroke:none" transform="matrix(.13333 0 0 -.13333 0 302.867)"/><path d="M614.711 1851.6c23.16 0 41.945-18.78 41.945-41.96 0-23.16-18.785-41.94-41.945-41.94-23.176 0-41.953 18.78-41.953 41.94 0 23.18 18.777 41.96 41.953 41.96" style="fill:#b91893;fill-opacity:1;fill-rule:evenodd;stroke:none" transform="matrix(.13333 0 0 -.13333 0 302.867)"/><path d="M1941.83 1456.34c2.58-10.72 19.8-1.37 28.26-.7 15.52 3.93 30.88-4.8 35.23-20.04 3.96-15.01-4.88-30.56-19.93-35.03-15.2-3.85-30.56 4.88-35.22 20.03-4.49 9.06-4.32 28.54-14.72 24.52-9.8-3.8-.66-18.12-.22-26.96 4.38-14.74-4.68-30.68-19.7-34.64-15.41-3.74-30.76 4.99-35.03 19.92-3.89 14.71 5.19 30.65 19.7 34.65 8.97 4.79 26.83 4.29 24.23 15.12-2.68 11.13-20.47.19-29.35-.76-14.9-3.77-30.45 5.07-34.83 19.81-3.85 15.22 5.1 30.96 19.92 35.03 15.13 4.16 30.68-4.68 35.04-19.92 4.7-8.67 4.6-27.44 15.04-23.92 10.15 3.41.86 18 .26 27.46-3.99 14.52 5.07 30.46 19.7 34.64 15.23 4.36 30.98-4.6 34.83-19.81 4.46-15.05-4.6-30.99-19.7-34.64-8.39-5.13-26.03-4.24-23.51-14.76" style="fill:#d16cbd;fill-opacity:1;fill-rule:nonzero;stroke:none" transform="matrix(.13333 0 0 -.13333 0 302.867)"/><path d="M1308.97 1521.75c21.47 0 38.88-17.41 38.88-38.87 0-21.47-17.41-38.88-38.88-38.88-21.48 0-38.88 17.41-38.88 38.88 0 21.46 17.4 38.87 38.88 38.87M1650.73 1606.77c0-16.96-13.74-30.7-30.69-30.7-16.95 0-30.7 13.74-30.7 30.7 0 16.95 13.75 30.69 30.7 30.69s30.69-13.74 30.69-30.69M1570.85 1649.81c12.52 12.71 29.92 20.62 49.19 20.62 19.22 0 36.58-7.87 49.11-20.53l27.13 27.13c-19.46 19.61-46.42 31.77-76.24 31.77-29.86 0-56.85-12.2-76.33-31.86l27.14-27.13" style="fill:#b91893;fill-opacity:1;fill-rule:nonzero;stroke:none" transform="matrix(.13333 0 0 -.13333 0 302.867)"/><path d="M1521.03 1699.63c26.16 23.75 60.89 38.25 99.01 38.25 38.08 0 72.76-14.46 98.92-38.17l26.06 26.06c-32.84 30.36-76.73 48.94-124.98 48.94-48.3 0-92.23-18.61-125.08-49.02l26.07-26.06" style="fill:#b91893;fill-opacity:1;fill-rule:nonzero;stroke:none" transform="matrix(.13333 0 0 -.13333 0 302.867)"/><path d="M1471.34 1749.32c39.71 34.84 91.72 56 148.7 56 56.93 0 108.91-21.13 148.6-55.93l27.75 27.75c-46.83 41.85-108.61 67.33-176.35 67.33-67.79 0-129.6-25.51-176.44-67.41l27.74-27.74M637.227 1900.86c-38.372 0-69.477 31.1-69.477 69.47s31.105 69.47 69.477 69.47c38.371 0 69.472-31.1 69.472-69.47s-31.101-69.47-69.472-69.47zm151.199-62.52-77.668 76.85c11.539 15.36 18.379 34.45 18.379 55.14 0 50.76-41.149 91.9-91.91 91.9-50.754 0-91.903-41.14-91.903-91.9 0-50.76 41.149-91.91 91.903-91.91 18.179 0 35.105 5.3 49.367 14.4l78.562-77.74 23.27 23.26M1032.73 1704.4c8.64-8.51 14.01-20.34 14.01-33.42 0-13.07-5.35-24.87-13.96-33.38l18.45-18.44c13.32 13.23 21.58 31.55 21.58 51.82 0 20.29-8.28 38.63-21.65 51.86l-18.43-18.44" style="fill:#b91893;fill-opacity:1;fill-rule:nonzero;stroke:none" transform="matrix(.13333 0 0 -.13333 0 302.867)"/><path d="M1066.58 1738.26c16.15-17.78 25.99-41.38 25.99-67.28 0-25.88-9.82-49.46-25.93-67.23l17.71-17.71c20.63 22.32 33.26 52.14 33.26 84.94 0 32.81-12.65 62.67-33.32 84.99l-17.71-17.71M1004.45 1785.72c-2.14 0-4.11-.73-5.68-1.95l-.032.04-71.269-62.53h-70.867a9.324 9.324 0 0 1-9.325-9.33v-88.17c0-5.15 4.176-9.32 9.325-9.32h70.867l71.269-62.53.032.03a9.28 9.28 0 0 1 5.68-1.94c5.16 0 9.33 4.17 9.33 9.32v217.05a9.32 9.32 0 0 1-9.33 9.33M1569.25 2257.29s-8.85-4.81-14.18-6.72c-5.33-1.9-15.09-3.81-15.09-3.81s-10.76 14.33-32.94 14.33-38.27-13.8-42.84-25.46-3.43-32.32-3.43-32.32-34.99 5.57-52.21 14.94c-17.24 9.38-42.47 34.23-42.47 34.23s-9.37-14.57-5.57-30.42c3.81-15.85 3.29-13.42 7.48-19.89 4.19-6.48 10.52-10.9 10.52-10.9s-6.1.37-9.76 1.14c-3.66.76-9.38 4.42-9.38 4.42s-.38-16.62 9.38-29.27c9.76-12.66 27.36-16.85 27.36-16.85s-6.94-1.91-10.75-2.29c-3.81-.38-9.52 1.15-9.52 1.15s1.52-11.66 13.18-20.28c11.67-8.62 28.52-12.04 28.52-12.04s-14.33-11.14-29.28-14.95c-14.94-3.81-36.36-3.43-36.36-3.43s26.23-21.04 67.54-21.04c41.32 0 87.07 17 110 56.03 22.95 39.03 22.57 63.35 23.33 81.49 4.19 2.52 6.86 5.8 12.43 11.14 5.56 5.33 9.75 11.66 9.75 11.66s-6.09-2.14-12.04-3.66c-5.95-1.53-11.66-1.91-11.66-1.91s5.57 4.19 10.14 10.14 7.85 14.57 7.85 14.57M1871.85 1126.61h-11.95c-30 0-54.54 24.54-54.54 54.54v130.9c0 29.99 24.54 54.53 54.54 54.53h11.95c30 0 54.53-24.54 54.53-54.53v-130.9c0-30-24.53-54.54-54.53-54.54" style="fill:#b91893;fill-opacity:1;fill-rule:nonzero;stroke:none" transform="matrix(.13333 0 0 -.13333 0 302.867)"/><path d="M1954.96 1210.04v-24.42h-.03c0-49.3-39.97-89.27-89.27-89.27-49.31 0-89.28 39.97-89.28 89.27h-.02v24.42h-23.33v-24.42c0-58.36 44.38-106.33 101.23-112.06v-45.53h-66.4v-23.99h156.99v23.99h-66.6v45.68c56.27 6.27 100.04 53.97 100.04 111.91v24.42h-23.33M1415.32 2024.71l-90.94-54.38v114.79z" style="fill:#b91893;fill-opacity:1;fill-rule:nonzero;stroke:none" transform="matrix(.13333 0 0 -.13333 0 302.867)"/><path d="M2112.94 1670.07c22.39 0 40.55-18.16 40.55-40.55 0-22.38-18.16-40.54-40.55-40.54-22.39 0-40.55 18.16-40.55 40.54 0 22.39 18.16 40.55 40.55 40.55" style="fill:#b91893;fill-opacity:1;fill-rule:evenodd;stroke:none" transform="matrix(.13333 0 0 -.13333 0 302.867)"/></svg>